<?xml version="1.0" encoding="UTF-8" standalone="no"?>
<svg
   width="27.630899"
   height="26.06596"
   viewBox="0 0 27.630899 26.06596"
   fill="none"
   version="1.1"
   id="svg2"
   xmlns="http://www.w3.org/2000/svg"
   xmlns:svg="http://www.w3.org/2000/svg">
  <defs
     id="defs2" />
  <path
     d="m 27.6309,13.032959 c 0,3.5994 -1.4586,6.8576 -3.817,9.216 -2.3583,2.3584 -5.6166,3.817 -9.216,3.817 H 4.78877 l 4.80598,-5.9391 c 0.84355,0.3506 1.76835,0.5447 2.73865,0.5447 3.9312,0 7.119,-3.1879 7.119,-7.119 0,-3.9312 -3.1878,-7.12059 -7.119,-7.12059 -3.93115,0 -7.12053,3.18779 -7.12053,7.12059 0,0.845 0.14867,1.6573 0.41784,2.4084 L 0,20.283359 V 4.414739 C 0,1.976539 1.97654,0 4.41474,0 H 14.5963 c 7.1973,0 13.033,5.835719 13.033,13.032959 z"
     fill="#32773a"
     id="path1" />
</svg>
