<?xml version="1.0" encoding="UTF-8" standalone="no"?>
<svg
   width="111.487"
   height="26.06596"
   viewBox="0 0 111.487 26.06596"
   fill="none"
   version="1.1"
   id="svg2"
   xmlns="http://www.w3.org/2000/svg"
   xmlns:svg="http://www.w3.org/2000/svg">
  <defs
     id="defs2" />
  <path
     d="m 27.6309,13.032959 c 0,3.5994 -1.4586,6.8576 -3.817,9.216 -2.3583,2.3584 -5.6166,3.817 -9.216,3.817 H 4.78877 l 4.80598,-5.9391 c 0.84355,0.3506 1.76835,0.5447 2.73865,0.5447 3.9312,0 7.119,-3.1879 7.119,-7.119 0,-3.9312 -3.1878,-7.12059 -7.119,-7.12059 -3.93115,0 -7.12053,3.18779 -7.12053,7.12059 0,0.845 0.14867,1.6573 0.41784,2.4084 L 0,20.283359 V 4.414739 C 0,1.976539 1.97654,0 4.41474,0 H 14.5963 c 7.1973,0 13.033,5.835719 13.033,13.032959 z"
     fill="#32773a"
     id="path1" />
  <path
     d="m 38.0989,5.698959 c 1.672,0 3.1166,0.31533 4.334,0.946 1.232,0.616 2.1706,1.50333 2.816,2.662 0.66,1.1587 0.99,2.5227 0.99,4.092 0,1.5693 -0.33,2.9333 -0.99,4.092 -0.6454,1.144 -1.584,2.024 -2.816,2.64 -1.2174,0.6013 -2.662,0.902 -4.334,0.902 h -4.774 v -15.334 z m 0,13.684 c 1.98,0 3.4906,-0.5207 4.532,-1.562 1.0413,-1.056 1.562,-2.53 1.562,-4.422 0,-1.9067 -0.528,-3.3953 -1.584,-4.466 -1.0414,-1.07067 -2.5447,-1.606 -4.51,-1.606 h -2.772 v 12.056 z m 11.8146,-12.364 c -0.3813,0 -0.704,-0.132 -0.968,-0.396 -0.264,-0.264 -0.396,-0.58667 -0.396,-0.968 0,-0.38133 0.132,-0.704 0.396,-0.968 0.264,-0.264 0.5867,-0.396 0.968,-0.396 0.3667,0 0.6747,0.132 0.924,0.396 0.264,0.264 0.396,0.58667 0.396,0.968 0,0.38133 -0.132,0.704 -0.396,0.968 -0.2493,0.264 -0.5573,0.396 -0.924,0.396 z m 0.968,1.958 v 12.056 h -2.002 v -12.056 z m 7.6801,12.254 c -0.924,0 -1.7527,-0.154 -2.486,-0.462 -0.7333,-0.3227 -1.3127,-0.7627 -1.738,-1.32 -0.4253,-0.572 -0.66,-1.2247 -0.704,-1.958 h 2.068 c 0.0587,0.6013 0.3373,1.0927 0.836,1.474 0.5133,0.3813 1.1807,0.572 2.002,0.572 0.7627,0 1.364,-0.1687 1.804,-0.506 0.44,-0.3373 0.66,-0.7627 0.66,-1.276 0,-0.528 -0.2347,-0.9167 -0.704,-1.166 -0.4693,-0.264 -1.1953,-0.5207 -2.178,-0.77 -0.8947,-0.2347 -1.628,-0.4693 -2.2,-0.704 -0.5573,-0.2493 -1.0413,-0.6087 -1.452,-1.078 -0.396,-0.484 -0.594,-1.1147 -0.594,-1.892 0,-0.616 0.1833,-1.1807 0.55,-1.694 0.3667,-0.5133 0.8873,-0.9167 1.562,-1.21 0.6747,-0.308 1.4447,-0.462 2.31,-0.462 1.3347,0 2.4127,0.3373 3.234,1.012 0.8213,0.6747 1.2613,1.5987 1.32,2.772 h -2.002 c -0.044,-0.6307 -0.3007,-1.1367 -0.77,-1.518 -0.4547,-0.3813 -1.0707,-0.572 -1.848,-0.572 -0.7187,0 -1.2907,0.154 -1.716,0.462 -0.4253,0.308 -0.638,0.7113 -0.638,1.21 0,0.396 0.1247,0.726 0.374,0.99 0.264,0.2493 0.5867,0.4547 0.968,0.616 0.396,0.1467 0.9387,0.3153 1.628,0.506 0.8653,0.2347 1.5693,0.4693 2.112,0.704 0.5427,0.22 1.0047,0.5573 1.386,1.012 0.396,0.4547 0.6013,1.0487 0.616,1.782 0,0.66 -0.1833,1.254 -0.55,1.782 -0.3667,0.528 -0.8873,0.946 -1.562,1.254 -0.66,0.2933 -1.4227,0.44 -2.288,0.44 z m 9.6682,-10.604 v 7.106 c 0,0.5867 0.1246,1.0047 0.374,1.254 0.2493,0.2347 0.682,0.352 1.2979,0.352 h 1.4741 v 1.694 h -1.804 c -1.1147,0 -1.9507,-0.2567 -2.508,-0.77 -0.5574,-0.5133 -0.836,-1.3567 -0.836,-2.53 v -7.106 h -1.562 v -1.65 h 1.562 v -3.036 h 2.002 v 3.036 h 3.146 v 1.65 z m 7.5736,0.308 c 0.352,-0.6893 0.8507,-1.2247 1.496,-1.606 0.66,-0.38133 1.4594,-0.572 2.398,-0.572 v 2.068 h -0.528 c -2.244,0 -3.366,1.2173 -3.366,3.652 v 6.556 h -2.002 v -12.056 h 2.002 z m 12.4971,10.098 -2.86,-4.488 -2.75,4.488 h -2.09 l 3.894,-5.984 -3.894,-6.072 h 2.266 l 2.86,4.466 2.728,-4.466 h 2.09 l -3.872,5.962 3.894,6.094 z m 3.4873,-6.05 c 0,-1.2467 0.2493,-2.332 0.748,-3.256 0.4987,-0.9387 1.188,-1.6647 2.068,-2.178 0.8947,-0.5133 1.914,-0.77 3.058,-0.77 1.4813,0 2.6982,0.3593 3.6522,1.078 0.968,0.7187 1.606,1.716 1.914,2.992 h -2.156 c -0.206,-0.7333 -0.609,-1.3127 -1.2102,-1.738 -0.5867,-0.4253 -1.32,-0.638 -2.2,-0.638 -1.144,0 -2.068,0.396 -2.772,1.188 -0.704,0.7773 -1.056,1.8847 -1.056,3.322 0,1.452 0.352,2.574 1.056,3.366 0.704,0.792 1.628,1.188 2.772,1.188 0.88,0 1.6133,-0.2053 2.2,-0.616 0.5862,-0.4107 0.9902,-0.9973 1.2102,-1.76 h 2.156 c -0.323,1.232 -0.968,2.222 -1.936,2.97 -0.968,0.7333 -2.1782,1.1 -3.6302,1.1 -1.144,0 -2.1633,-0.2567 -3.058,-0.77 -0.88,-0.5133 -1.5693,-1.2393 -2.068,-2.178 -0.4987,-0.9387 -0.748,-2.0387 -0.748,-3.3 z m 16.5532,-4.356 v 7.106 c 0,0.5867 0.125,1.0047 0.374,1.254 0.249,0.2347 0.682,0.352 1.298,0.352 h 1.474 v 1.694 h -1.804 c -1.115,0 -1.951,-0.2567 -2.508,-0.77 -0.557,-0.5133 -0.836,-1.3567 -0.836,-2.53 v -7.106 h -1.562 v -1.65 h 1.562 v -3.036 h 2.002 v 3.036 h 3.146 v 1.65 z"
     fill="#0c0c0c"
     id="path2" />
</svg>
