<svg width="41" height="42" viewBox="0 0 41 42" fill="none" xmlns="http://www.w3.org/2000/svg">
<path opacity="0.4" d="M20.5003 38.1004C29.9352 38.1004 37.5837 30.452 37.5837 21.0171C37.5837 11.5822 29.9352 3.93378 20.5003 3.93378C11.0655 3.93378 3.41699 11.5822 3.41699 21.0171C3.41699 30.452 11.0655 38.1004 20.5003 38.1004Z" fill="#292D32"/>
<path d="M20.5 12.3557C16.9638 12.3557 14.0938 15.2257 14.0938 18.762C14.0938 22.2299 16.81 25.0486 20.4146 25.1511C20.4658 25.1511 20.5342 25.1511 20.5683 25.1511C20.6025 25.1511 20.6537 25.1511 20.6879 25.1511C20.705 25.1511 20.7221 25.1511 20.7221 25.1511C24.1729 25.0315 26.8892 22.2299 26.9062 18.762C26.9062 15.2257 24.0363 12.3557 20.5 12.3557Z" fill="#292D32"/>
<path d="M32.082 33.5733C29.0412 36.375 24.9753 38.1004 20.4995 38.1004C16.0237 38.1004 11.9578 36.375 8.91699 33.5733C9.32699 32.0187 10.4374 30.6008 12.0603 29.5075C16.7241 26.3983 24.3091 26.3983 28.9387 29.5075C30.5787 30.6008 31.672 32.0187 32.082 33.5733Z" fill="#292D32"/>
</svg>
